<mxfile host="app.diagrams.net" agent="Mozilla/5.0 (Windows NT 10.0; Win64; x64) AppleWebKit/537.36 (KHTML, like Gecko) Chrome/132.0.0.0 Safari/537.36" version="26.0.10">
  <diagram id="R2lEEEUBdFMjLlhIrx00" name="Page-1">
    <mxGraphModel dx="2049" dy="1503" grid="1" gridSize="10" guides="1" tooltips="1" connect="1" arrows="1" fold="1" page="0" pageScale="1" pageWidth="850" pageHeight="1100" background="none" math="0" shadow="0" extFonts="Permanent Marker^https://fonts.googleapis.com/css?family=Permanent+Marker">
      <root>
        <mxCell id="0" />
        <mxCell id="1" parent="0" />
        <mxCell id="Rv9nNQW4Hy2pHnhk0odQ-2" value="Facility" style="rounded=1;whiteSpace=wrap;html=1;" parent="1" vertex="1">
          <mxGeometry x="509" y="27" width="120" height="60" as="geometry" />
        </mxCell>
        <mxCell id="Rv9nNQW4Hy2pHnhk0odQ-5" value="Customer" style="rounded=1;whiteSpace=wrap;html=1;" parent="1" vertex="1">
          <mxGeometry x="782.5" y="480" width="120" height="60" as="geometry" />
        </mxCell>
        <mxCell id="Rv9nNQW4Hy2pHnhk0odQ-7" value="Team" style="rounded=1;whiteSpace=wrap;html=1;" parent="1" vertex="1">
          <mxGeometry x="130" y="260" width="120" height="60" as="geometry" />
        </mxCell>
        <mxCell id="Rv9nNQW4Hy2pHnhk0odQ-8" value="Employee" style="rounded=1;whiteSpace=wrap;html=1;" parent="1" vertex="1">
          <mxGeometry x="130" y="40" width="120" height="60" as="geometry" />
        </mxCell>
        <mxCell id="Rv9nNQW4Hy2pHnhk0odQ-10" value="Feedback" style="rounded=1;whiteSpace=wrap;html=1;" parent="1" vertex="1">
          <mxGeometry x="460" y="260" width="120" height="60" as="geometry" />
        </mxCell>
        <mxCell id="Rv9nNQW4Hy2pHnhk0odQ-11" value="Account" style="rounded=1;whiteSpace=wrap;html=1;" parent="1" vertex="1">
          <mxGeometry x="785" y="260" width="120" height="60" as="geometry" />
        </mxCell>
        <mxCell id="Rv9nNQW4Hy2pHnhk0odQ-14" value="Gives" style="rhombus;whiteSpace=wrap;html=1;" parent="1" vertex="1">
          <mxGeometry x="645" y="250" width="80" height="80" as="geometry" />
        </mxCell>
        <mxCell id="Rv9nNQW4Hy2pHnhk0odQ-16" value="Has" style="rhombus;whiteSpace=wrap;html=1;" parent="1" vertex="1">
          <mxGeometry x="802.5" y="360" width="80" height="80" as="geometry" />
        </mxCell>
        <mxCell id="Rv9nNQW4Hy2pHnhk0odQ-27" value="" style="endArrow=none;html=1;rounded=0;exitX=0.5;exitY=0;exitDx=0;exitDy=0;entryX=0.5;entryY=1;entryDx=0;entryDy=0;" parent="1" source="Rv9nNQW4Hy2pHnhk0odQ-5" target="Rv9nNQW4Hy2pHnhk0odQ-16" edge="1">
          <mxGeometry width="50" height="50" relative="1" as="geometry">
            <mxPoint x="787.5" y="490" as="sourcePoint" />
            <mxPoint x="837.5" y="440" as="targetPoint" />
          </mxGeometry>
        </mxCell>
        <mxCell id="Rv9nNQW4Hy2pHnhk0odQ-61" value="(0, N)" style="edgeLabel;html=1;align=center;verticalAlign=middle;resizable=0;points=[];" parent="Rv9nNQW4Hy2pHnhk0odQ-27" vertex="1" connectable="0">
          <mxGeometry x="0.06" y="-1" relative="1" as="geometry">
            <mxPoint as="offset" />
          </mxGeometry>
        </mxCell>
        <mxCell id="Rv9nNQW4Hy2pHnhk0odQ-28" value="" style="endArrow=none;html=1;rounded=0;exitX=0.5;exitY=0;exitDx=0;exitDy=0;entryX=0.5;entryY=1;entryDx=0;entryDy=0;" parent="1" edge="1">
          <mxGeometry width="50" height="50" relative="1" as="geometry">
            <mxPoint x="842.33" y="360" as="sourcePoint" />
            <mxPoint x="842.33" y="320" as="targetPoint" />
          </mxGeometry>
        </mxCell>
        <mxCell id="Rv9nNQW4Hy2pHnhk0odQ-62" value="(1, 1)" style="edgeLabel;html=1;align=center;verticalAlign=middle;resizable=0;points=[];" parent="Rv9nNQW4Hy2pHnhk0odQ-28" vertex="1" connectable="0">
          <mxGeometry x="-0.2" y="-2" relative="1" as="geometry">
            <mxPoint as="offset" />
          </mxGeometry>
        </mxCell>
        <mxCell id="Rv9nNQW4Hy2pHnhk0odQ-35" value="Configuration" style="rhombus;whiteSpace=wrap;html=1;" parent="1" vertex="1">
          <mxGeometry x="150" y="140" width="80" height="80" as="geometry" />
        </mxCell>
        <mxCell id="Rv9nNQW4Hy2pHnhk0odQ-36" value="" style="endArrow=none;html=1;rounded=0;exitX=0.5;exitY=0;exitDx=0;exitDy=0;entryX=0.5;entryY=1;entryDx=0;entryDy=0;" parent="1" target="Rv9nNQW4Hy2pHnhk0odQ-35" edge="1">
          <mxGeometry width="50" height="50" relative="1" as="geometry">
            <mxPoint x="190" y="260" as="sourcePoint" />
            <mxPoint x="185" y="220" as="targetPoint" />
          </mxGeometry>
        </mxCell>
        <mxCell id="Rv9nNQW4Hy2pHnhk0odQ-67" value="(1, N)" style="edgeLabel;html=1;align=center;verticalAlign=middle;resizable=0;points=[];" parent="Rv9nNQW4Hy2pHnhk0odQ-36" vertex="1" connectable="0">
          <mxGeometry x="-0.04" y="-1" relative="1" as="geometry">
            <mxPoint as="offset" />
          </mxGeometry>
        </mxCell>
        <mxCell id="Rv9nNQW4Hy2pHnhk0odQ-37" value="" style="endArrow=none;html=1;rounded=0;exitX=0.5;exitY=0;exitDx=0;exitDy=0;entryX=0.5;entryY=1;entryDx=0;entryDy=0;" parent="1" edge="1">
          <mxGeometry width="50" height="50" relative="1" as="geometry">
            <mxPoint x="189.83000000000004" y="140" as="sourcePoint" />
            <mxPoint x="189.83000000000004" y="100" as="targetPoint" />
          </mxGeometry>
        </mxCell>
        <mxCell id="Rv9nNQW4Hy2pHnhk0odQ-68" value="(1, 1)" style="edgeLabel;html=1;align=center;verticalAlign=middle;resizable=0;points=[];" parent="Rv9nNQW4Hy2pHnhk0odQ-37" vertex="1" connectable="0">
          <mxGeometry y="-1" relative="1" as="geometry">
            <mxPoint as="offset" />
          </mxGeometry>
        </mxCell>
        <mxCell id="Rv9nNQW4Hy2pHnhk0odQ-43" value="OverseenBy" style="rhombus;whiteSpace=wrap;html=1;" parent="1" vertex="1">
          <mxGeometry x="350" y="17" width="80" height="80" as="geometry" />
        </mxCell>
        <mxCell id="Rv9nNQW4Hy2pHnhk0odQ-45" value="" style="endArrow=none;html=1;rounded=0;entryX=1;entryY=0;entryDx=0;entryDy=0;exitX=0.505;exitY=1.035;exitDx=0;exitDy=0;exitPerimeter=0;" parent="1" source="Rv9nNQW4Hy2pHnhk0odQ-43" target="Rv9nNQW4Hy2pHnhk0odQ-7" edge="1">
          <mxGeometry width="50" height="50" relative="1" as="geometry">
            <mxPoint x="40" y="288.86" as="sourcePoint" />
            <mxPoint x="130" y="288.86" as="targetPoint" />
            <Array as="points">
              <mxPoint x="390" y="160" />
            </Array>
          </mxGeometry>
        </mxCell>
        <mxCell id="Rv9nNQW4Hy2pHnhk0odQ-69" value="(1, 1)" style="edgeLabel;html=1;align=center;verticalAlign=middle;resizable=0;points=[];" parent="Rv9nNQW4Hy2pHnhk0odQ-45" vertex="1" connectable="0">
          <mxGeometry x="-0.6765" y="1" relative="1" as="geometry">
            <mxPoint as="offset" />
          </mxGeometry>
        </mxCell>
        <mxCell id="Rv9nNQW4Hy2pHnhk0odQ-50" value="" style="endArrow=none;html=1;rounded=0;entryX=0;entryY=0.5;entryDx=0;entryDy=0;" parent="1" target="Rv9nNQW4Hy2pHnhk0odQ-14" edge="1">
          <mxGeometry width="50" height="50" relative="1" as="geometry">
            <mxPoint x="580" y="290" as="sourcePoint" />
            <mxPoint x="630" y="240" as="targetPoint" />
          </mxGeometry>
        </mxCell>
        <mxCell id="Rv9nNQW4Hy2pHnhk0odQ-64" value="(1, 1)" style="edgeLabel;html=1;align=center;verticalAlign=middle;resizable=0;points=[];" parent="Rv9nNQW4Hy2pHnhk0odQ-50" vertex="1" connectable="0">
          <mxGeometry x="0.1077" y="-2" relative="1" as="geometry">
            <mxPoint as="offset" />
          </mxGeometry>
        </mxCell>
        <mxCell id="Rv9nNQW4Hy2pHnhk0odQ-52" value="" style="endArrow=none;html=1;rounded=0;" parent="1" edge="1">
          <mxGeometry width="50" height="50" relative="1" as="geometry">
            <mxPoint x="725" y="289.65999999999997" as="sourcePoint" />
            <mxPoint x="785" y="290" as="targetPoint" />
          </mxGeometry>
        </mxCell>
        <mxCell id="Rv9nNQW4Hy2pHnhk0odQ-63" value="(0, N)" style="edgeLabel;html=1;align=center;verticalAlign=middle;resizable=0;points=[];" parent="Rv9nNQW4Hy2pHnhk0odQ-52" vertex="1" connectable="0">
          <mxGeometry x="-0.0068" y="1" relative="1" as="geometry">
            <mxPoint as="offset" />
          </mxGeometry>
        </mxCell>
        <mxCell id="Rv9nNQW4Hy2pHnhk0odQ-54" value="" style="endArrow=none;html=1;rounded=0;entryX=0;entryY=0.5;entryDx=0;entryDy=0;exitX=1;exitY=0.5;exitDx=0;exitDy=0;" parent="1" source="Rv9nNQW4Hy2pHnhk0odQ-7" edge="1">
          <mxGeometry width="50" height="50" relative="1" as="geometry">
            <mxPoint x="254" y="290" as="sourcePoint" />
            <mxPoint x="319" y="290" as="targetPoint" />
          </mxGeometry>
        </mxCell>
        <mxCell id="Rv9nNQW4Hy2pHnhk0odQ-66" value="(0, N)" style="edgeLabel;html=1;align=center;verticalAlign=middle;resizable=0;points=[];" parent="Rv9nNQW4Hy2pHnhk0odQ-54" vertex="1" connectable="0">
          <mxGeometry x="-0.0029" y="-1" relative="1" as="geometry">
            <mxPoint y="-1" as="offset" />
          </mxGeometry>
        </mxCell>
        <mxCell id="Rv9nNQW4Hy2pHnhk0odQ-55" value="Evaluation" style="rhombus;whiteSpace=wrap;html=1;" parent="1" vertex="1">
          <mxGeometry x="320" y="250" width="80" height="80" as="geometry" />
        </mxCell>
        <mxCell id="Rv9nNQW4Hy2pHnhk0odQ-56" value="" style="endArrow=none;html=1;rounded=0;" parent="1" edge="1">
          <mxGeometry width="50" height="50" relative="1" as="geometry">
            <mxPoint x="400" y="289.65999999999997" as="sourcePoint" />
            <mxPoint x="460" y="290" as="targetPoint" />
          </mxGeometry>
        </mxCell>
        <mxCell id="Rv9nNQW4Hy2pHnhk0odQ-65" value="(1, 1)" style="edgeLabel;html=1;align=center;verticalAlign=middle;resizable=0;points=[];" parent="Rv9nNQW4Hy2pHnhk0odQ-56" vertex="1" connectable="0">
          <mxGeometry x="-0.3064" y="-1" relative="1" as="geometry">
            <mxPoint as="offset" />
          </mxGeometry>
        </mxCell>
        <mxCell id="Rv9nNQW4Hy2pHnhk0odQ-91" value="" style="group" parent="1" vertex="1" connectable="0">
          <mxGeometry x="110" y="290" width="20" height="10" as="geometry" />
        </mxCell>
        <mxCell id="Rv9nNQW4Hy2pHnhk0odQ-83" value="" style="line;strokeWidth=2;html=1;" parent="Rv9nNQW4Hy2pHnhk0odQ-91" vertex="1">
          <mxGeometry x="10" width="10" height="10" as="geometry" />
        </mxCell>
        <mxCell id="Rv9nNQW4Hy2pHnhk0odQ-90" value="" style="ellipse;whiteSpace=wrap;html=1;aspect=fixed;" parent="Rv9nNQW4Hy2pHnhk0odQ-91" vertex="1">
          <mxGeometry width="10" height="10" as="geometry" />
        </mxCell>
        <mxCell id="Rv9nNQW4Hy2pHnhk0odQ-92" value="" style="group" parent="1" vertex="1" connectable="0">
          <mxGeometry x="110" y="270" width="20" height="10" as="geometry" />
        </mxCell>
        <mxCell id="Rv9nNQW4Hy2pHnhk0odQ-93" value="" style="line;strokeWidth=2;html=1;" parent="Rv9nNQW4Hy2pHnhk0odQ-92" vertex="1">
          <mxGeometry x="10" width="10" height="10" as="geometry" />
        </mxCell>
        <mxCell id="Rv9nNQW4Hy2pHnhk0odQ-94" value="" style="ellipse;whiteSpace=wrap;html=1;aspect=fixed;fillStyle=solid;fillColor=#000000;gradientColor=#333333;" parent="Rv9nNQW4Hy2pHnhk0odQ-92" vertex="1">
          <mxGeometry width="10" height="10" as="geometry" />
        </mxCell>
        <mxCell id="Rv9nNQW4Hy2pHnhk0odQ-96" value="Code" style="text;html=1;align=center;verticalAlign=middle;whiteSpace=wrap;rounded=0;" parent="1" vertex="1">
          <mxGeometry x="81" y="270" width="20" height="10" as="geometry" />
        </mxCell>
        <mxCell id="Rv9nNQW4Hy2pHnhk0odQ-97" value="Name" style="text;html=1;align=center;verticalAlign=middle;whiteSpace=wrap;rounded=0;" parent="1" vertex="1">
          <mxGeometry x="81" y="290" width="20" height="10" as="geometry" />
        </mxCell>
        <mxCell id="Rv9nNQW4Hy2pHnhk0odQ-106" value="" style="group" parent="1" vertex="1" connectable="0">
          <mxGeometry x="110" y="67" width="20" height="10" as="geometry" />
        </mxCell>
        <mxCell id="Rv9nNQW4Hy2pHnhk0odQ-107" value="" style="line;strokeWidth=2;html=1;" parent="Rv9nNQW4Hy2pHnhk0odQ-106" vertex="1">
          <mxGeometry x="10" width="10" height="10" as="geometry" />
        </mxCell>
        <mxCell id="Rv9nNQW4Hy2pHnhk0odQ-108" value="" style="ellipse;whiteSpace=wrap;html=1;aspect=fixed;" parent="Rv9nNQW4Hy2pHnhk0odQ-106" vertex="1">
          <mxGeometry width="10" height="10" as="geometry" />
        </mxCell>
        <mxCell id="Rv9nNQW4Hy2pHnhk0odQ-109" value="" style="group" parent="1" vertex="1" connectable="0">
          <mxGeometry x="110" y="47" width="20" height="10" as="geometry" />
        </mxCell>
        <mxCell id="Rv9nNQW4Hy2pHnhk0odQ-110" value="" style="line;strokeWidth=2;html=1;" parent="Rv9nNQW4Hy2pHnhk0odQ-109" vertex="1">
          <mxGeometry x="10" width="10" height="10" as="geometry" />
        </mxCell>
        <mxCell id="Rv9nNQW4Hy2pHnhk0odQ-111" value="" style="ellipse;whiteSpace=wrap;html=1;aspect=fixed;fillStyle=solid;fillColor=#000000;gradientColor=#333333;" parent="Rv9nNQW4Hy2pHnhk0odQ-109" vertex="1">
          <mxGeometry width="10" height="10" as="geometry" />
        </mxCell>
        <mxCell id="Rv9nNQW4Hy2pHnhk0odQ-112" value="FC" style="text;html=1;align=center;verticalAlign=middle;whiteSpace=wrap;rounded=0;" parent="1" vertex="1">
          <mxGeometry x="90" y="47" width="20" height="10" as="geometry" />
        </mxCell>
        <mxCell id="Rv9nNQW4Hy2pHnhk0odQ-113" value="Name" style="text;html=1;align=center;verticalAlign=middle;whiteSpace=wrap;rounded=0;" parent="1" vertex="1">
          <mxGeometry x="81" y="67" width="20" height="10" as="geometry" />
        </mxCell>
        <mxCell id="Rv9nNQW4Hy2pHnhk0odQ-114" value="" style="group" parent="1" vertex="1" connectable="0">
          <mxGeometry x="110" y="87" width="20" height="10" as="geometry" />
        </mxCell>
        <mxCell id="Rv9nNQW4Hy2pHnhk0odQ-115" value="" style="line;strokeWidth=2;html=1;" parent="Rv9nNQW4Hy2pHnhk0odQ-114" vertex="1">
          <mxGeometry x="10" width="10" height="10" as="geometry" />
        </mxCell>
        <mxCell id="Rv9nNQW4Hy2pHnhk0odQ-116" value="" style="ellipse;whiteSpace=wrap;html=1;aspect=fixed;" parent="Rv9nNQW4Hy2pHnhk0odQ-114" vertex="1">
          <mxGeometry width="10" height="10" as="geometry" />
        </mxCell>
        <mxCell id="Rv9nNQW4Hy2pHnhk0odQ-117" value="Surname" style="text;html=1;align=center;verticalAlign=middle;whiteSpace=wrap;rounded=0;" parent="1" vertex="1">
          <mxGeometry x="69" y="87" width="20" height="10" as="geometry" />
        </mxCell>
        <mxCell id="Rv9nNQW4Hy2pHnhk0odQ-118" value="" style="group;rotation=90;" parent="1" vertex="1" connectable="0">
          <mxGeometry x="129" y="25" width="20" height="10" as="geometry" />
        </mxCell>
        <mxCell id="Rv9nNQW4Hy2pHnhk0odQ-119" value="" style="line;strokeWidth=2;html=1;rotation=90;" parent="Rv9nNQW4Hy2pHnhk0odQ-118" vertex="1">
          <mxGeometry x="5" y="5" width="10" height="10" as="geometry" />
        </mxCell>
        <mxCell id="Rv9nNQW4Hy2pHnhk0odQ-120" value="" style="ellipse;whiteSpace=wrap;html=1;aspect=fixed;rotation=90;" parent="Rv9nNQW4Hy2pHnhk0odQ-118" vertex="1">
          <mxGeometry x="5" y="-5" width="10" height="10" as="geometry" />
        </mxCell>
        <mxCell id="Rv9nNQW4Hy2pHnhk0odQ-121" value="DoB" style="text;html=1;align=center;verticalAlign=middle;whiteSpace=wrap;rounded=0;" parent="1" vertex="1">
          <mxGeometry x="134" y="7" width="10" height="10" as="geometry" />
        </mxCell>
        <mxCell id="Rv9nNQW4Hy2pHnhk0odQ-124" value="" style="group;rotation=90;" parent="1" vertex="1" connectable="0">
          <mxGeometry x="169" y="25" width="20" height="10" as="geometry" />
        </mxCell>
        <mxCell id="Rv9nNQW4Hy2pHnhk0odQ-125" value="" style="line;strokeWidth=2;html=1;rotation=90;" parent="Rv9nNQW4Hy2pHnhk0odQ-124" vertex="1">
          <mxGeometry x="5" y="5" width="10" height="10" as="geometry" />
        </mxCell>
        <mxCell id="Rv9nNQW4Hy2pHnhk0odQ-126" value="" style="ellipse;whiteSpace=wrap;html=1;aspect=fixed;rotation=90;" parent="Rv9nNQW4Hy2pHnhk0odQ-124" vertex="1">
          <mxGeometry x="5" y="-5" width="10" height="10" as="geometry" />
        </mxCell>
        <mxCell id="Rv9nNQW4Hy2pHnhk0odQ-127" value="DoH" style="text;html=1;align=center;verticalAlign=middle;whiteSpace=wrap;rounded=0;" parent="1" vertex="1">
          <mxGeometry x="172" y="7" width="10" height="10" as="geometry" />
        </mxCell>
        <mxCell id="Rv9nNQW4Hy2pHnhk0odQ-135" value="" style="group;rotation=-90;" parent="1" vertex="1" connectable="0">
          <mxGeometry x="559" y="325" width="20" height="10" as="geometry" />
        </mxCell>
        <mxCell id="Rv9nNQW4Hy2pHnhk0odQ-136" value="" style="line;strokeWidth=2;html=1;rotation=-90;" parent="Rv9nNQW4Hy2pHnhk0odQ-135" vertex="1">
          <mxGeometry x="5" y="-5" width="10" height="10" as="geometry" />
        </mxCell>
        <mxCell id="Rv9nNQW4Hy2pHnhk0odQ-137" value="" style="ellipse;whiteSpace=wrap;html=1;aspect=fixed;fillStyle=solid;fillColor=#000000;gradientColor=#333333;rotation=-90;" parent="Rv9nNQW4Hy2pHnhk0odQ-135" vertex="1">
          <mxGeometry x="5" y="5" width="10" height="10" as="geometry" />
        </mxCell>
        <mxCell id="Rv9nNQW4Hy2pHnhk0odQ-138" value="Code" style="text;html=1;align=center;verticalAlign=middle;whiteSpace=wrap;rounded=0;" parent="1" vertex="1">
          <mxGeometry x="559" y="340" width="20" height="10" as="geometry" />
        </mxCell>
        <mxCell id="Rv9nNQW4Hy2pHnhk0odQ-140" value="" style="group;rotation=-90;" parent="1" vertex="1" connectable="0">
          <mxGeometry x="470" y="325" width="20" height="10" as="geometry" />
        </mxCell>
        <mxCell id="Rv9nNQW4Hy2pHnhk0odQ-141" value="" style="line;strokeWidth=2;html=1;rotation=-90;" parent="Rv9nNQW4Hy2pHnhk0odQ-140" vertex="1">
          <mxGeometry x="5" y="-5" width="10" height="10" as="geometry" />
        </mxCell>
        <mxCell id="Rv9nNQW4Hy2pHnhk0odQ-142" value="" style="ellipse;whiteSpace=wrap;html=1;aspect=fixed;rotation=-90;" parent="Rv9nNQW4Hy2pHnhk0odQ-140" vertex="1">
          <mxGeometry x="5" y="5" width="10" height="10" as="geometry" />
        </mxCell>
        <mxCell id="Rv9nNQW4Hy2pHnhk0odQ-143" value="Score" style="text;html=1;align=center;verticalAlign=middle;whiteSpace=wrap;rounded=0;" parent="1" vertex="1">
          <mxGeometry x="440" y="340" width="20" height="10" as="geometry" />
        </mxCell>
        <mxCell id="Rv9nNQW4Hy2pHnhk0odQ-144" value="" style="group;rotation=90;" parent="1" vertex="1" connectable="0">
          <mxGeometry x="458" y="245" width="20" height="10" as="geometry" />
        </mxCell>
        <mxCell id="Rv9nNQW4Hy2pHnhk0odQ-145" value="" style="line;strokeWidth=2;html=1;rotation=90;" parent="Rv9nNQW4Hy2pHnhk0odQ-144" vertex="1">
          <mxGeometry x="5" y="5" width="10" height="10" as="geometry" />
        </mxCell>
        <mxCell id="Rv9nNQW4Hy2pHnhk0odQ-146" value="" style="ellipse;whiteSpace=wrap;html=1;aspect=fixed;rotation=90;" parent="Rv9nNQW4Hy2pHnhk0odQ-144" vertex="1">
          <mxGeometry x="5" y="-5" width="10" height="10" as="geometry" />
        </mxCell>
        <mxCell id="Rv9nNQW4Hy2pHnhk0odQ-147" value="Message" style="text;html=1;align=center;verticalAlign=middle;whiteSpace=wrap;rounded=0;" parent="1" vertex="1">
          <mxGeometry x="457" y="226" width="10" height="10" as="geometry" />
        </mxCell>
        <mxCell id="Rv9nNQW4Hy2pHnhk0odQ-212" value="Location" style="text;html=1;align=center;verticalAlign=middle;whiteSpace=wrap;rounded=0;" parent="1" vertex="1">
          <mxGeometry x="645" y="82" width="20" height="10" as="geometry" />
        </mxCell>
        <mxCell id="Rv9nNQW4Hy2pHnhk0odQ-226" value="" style="group" parent="1" vertex="1" connectable="0">
          <mxGeometry x="763" y="506" width="20" height="10" as="geometry" />
        </mxCell>
        <mxCell id="Rv9nNQW4Hy2pHnhk0odQ-227" value="" style="line;strokeWidth=2;html=1;" parent="Rv9nNQW4Hy2pHnhk0odQ-226" vertex="1">
          <mxGeometry x="10" width="10" height="10" as="geometry" />
        </mxCell>
        <mxCell id="Rv9nNQW4Hy2pHnhk0odQ-228" value="" style="ellipse;whiteSpace=wrap;html=1;aspect=fixed;" parent="Rv9nNQW4Hy2pHnhk0odQ-226" vertex="1">
          <mxGeometry width="10" height="10" as="geometry" />
        </mxCell>
        <mxCell id="Rv9nNQW4Hy2pHnhk0odQ-229" value="" style="group" parent="1" vertex="1" connectable="0">
          <mxGeometry x="763" y="486" width="20" height="10" as="geometry" />
        </mxCell>
        <mxCell id="Rv9nNQW4Hy2pHnhk0odQ-230" value="" style="line;strokeWidth=2;html=1;" parent="Rv9nNQW4Hy2pHnhk0odQ-229" vertex="1">
          <mxGeometry x="10" width="10" height="10" as="geometry" />
        </mxCell>
        <mxCell id="Rv9nNQW4Hy2pHnhk0odQ-231" value="" style="ellipse;whiteSpace=wrap;html=1;aspect=fixed;fillStyle=solid;fillColor=#000000;gradientColor=#333333;" parent="Rv9nNQW4Hy2pHnhk0odQ-229" vertex="1">
          <mxGeometry width="10" height="10" as="geometry" />
        </mxCell>
        <mxCell id="Rv9nNQW4Hy2pHnhk0odQ-232" value="Code" style="text;html=1;align=center;verticalAlign=middle;whiteSpace=wrap;rounded=0;" parent="1" vertex="1">
          <mxGeometry x="740" y="486" width="20" height="10" as="geometry" />
        </mxCell>
        <mxCell id="Rv9nNQW4Hy2pHnhk0odQ-233" value="Email" style="text;html=1;align=center;verticalAlign=middle;whiteSpace=wrap;rounded=0;" parent="1" vertex="1">
          <mxGeometry x="734" y="506" width="20" height="10" as="geometry" />
        </mxCell>
        <mxCell id="Rv9nNQW4Hy2pHnhk0odQ-234" value="" style="group" parent="1" vertex="1" connectable="0">
          <mxGeometry x="763" y="524" width="20" height="10" as="geometry" />
        </mxCell>
        <mxCell id="Rv9nNQW4Hy2pHnhk0odQ-235" value="" style="line;strokeWidth=2;html=1;" parent="Rv9nNQW4Hy2pHnhk0odQ-234" vertex="1">
          <mxGeometry x="10" width="10" height="10" as="geometry" />
        </mxCell>
        <mxCell id="Rv9nNQW4Hy2pHnhk0odQ-236" value="" style="ellipse;whiteSpace=wrap;html=1;aspect=fixed;" parent="Rv9nNQW4Hy2pHnhk0odQ-234" vertex="1">
          <mxGeometry width="10" height="10" as="geometry" />
        </mxCell>
        <mxCell id="Rv9nNQW4Hy2pHnhk0odQ-237" value="Name" style="text;html=1;align=center;verticalAlign=middle;whiteSpace=wrap;rounded=0;" parent="1" vertex="1">
          <mxGeometry x="733" y="524" width="20" height="10" as="geometry" />
        </mxCell>
        <mxCell id="Rv9nNQW4Hy2pHnhk0odQ-268" value="" style="group;rotation=-180;" parent="1" vertex="1" connectable="0">
          <mxGeometry x="905" y="270" width="20" height="10" as="geometry" />
        </mxCell>
        <mxCell id="Rv9nNQW4Hy2pHnhk0odQ-269" value="" style="line;strokeWidth=2;html=1;rotation=-180;" parent="Rv9nNQW4Hy2pHnhk0odQ-268" vertex="1">
          <mxGeometry width="10" height="10" as="geometry" />
        </mxCell>
        <mxCell id="Rv9nNQW4Hy2pHnhk0odQ-270" value="" style="ellipse;whiteSpace=wrap;html=1;aspect=fixed;fillStyle=solid;fillColor=#000000;gradientColor=#333333;rotation=-180;" parent="Rv9nNQW4Hy2pHnhk0odQ-268" vertex="1">
          <mxGeometry x="10" width="10" height="10" as="geometry" />
        </mxCell>
        <mxCell id="Rv9nNQW4Hy2pHnhk0odQ-271" value="Code" style="text;html=1;align=center;verticalAlign=middle;whiteSpace=wrap;rounded=0;" parent="1" vertex="1">
          <mxGeometry x="932.5" y="269" width="20" height="10" as="geometry" />
        </mxCell>
        <mxCell id="Rv9nNQW4Hy2pHnhk0odQ-281" value="&lt;font style=&quot;font-size: 8px;&quot;&gt;Completion Date&lt;/font&gt;" style="text;html=1;align=center;verticalAlign=middle;whiteSpace=wrap;rounded=0;" parent="1" vertex="1">
          <mxGeometry x="678.5" y="417" width="72.5" height="10" as="geometry" />
        </mxCell>
        <mxCell id="FTfOvMeQZkhhuj3rjYe9-10" value="&lt;font style=&quot;font-size: 8px;&quot;&gt;Completion Date&lt;/font&gt;" style="text;html=1;align=center;verticalAlign=middle;whiteSpace=wrap;rounded=0;" parent="1" vertex="1">
          <mxGeometry x="688.5" y="427" width="72.5" height="10" as="geometry" />
        </mxCell>
        <mxCell id="FTfOvMeQZkhhuj3rjYe9-11" value="" style="endArrow=none;html=1;rounded=0;exitX=0.014;exitY=0.95;exitDx=0;exitDy=0;exitPerimeter=0;" parent="1" source="Rv9nNQW4Hy2pHnhk0odQ-2" target="FTfOvMeQZkhhuj3rjYe9-13" edge="1">
          <mxGeometry width="50" height="50" relative="1" as="geometry">
            <mxPoint x="661" y="57" as="sourcePoint" />
            <mxPoint x="680" y="57" as="targetPoint" />
          </mxGeometry>
        </mxCell>
        <mxCell id="FTfOvMeQZkhhuj3rjYe9-13" value="" style="ellipse;whiteSpace=wrap;html=1;" parent="1" vertex="1">
          <mxGeometry x="490" y="97" width="10" height="11.5" as="geometry" />
        </mxCell>
        <mxCell id="FTfOvMeQZkhhuj3rjYe9-14" value="Type" style="text;html=1;align=center;verticalAlign=middle;resizable=0;points=[];autosize=1;strokeColor=none;fillColor=none;" parent="1" vertex="1">
          <mxGeometry x="470" y="100" width="50" height="30" as="geometry" />
        </mxCell>
        <mxCell id="FTfOvMeQZkhhuj3rjYe9-20" value="" style="endArrow=none;html=1;rounded=0;entryX=1.001;entryY=0.821;entryDx=0;entryDy=0;entryPerimeter=0;" parent="1" source="FTfOvMeQZkhhuj3rjYe9-21" edge="1">
          <mxGeometry width="50" height="50" relative="1" as="geometry">
            <mxPoint x="679.88" y="76" as="sourcePoint" />
            <mxPoint x="629" y="76.25999999999999" as="targetPoint" />
          </mxGeometry>
        </mxCell>
        <mxCell id="FTfOvMeQZkhhuj3rjYe9-23" value="EfficiencyScore&lt;div&gt;&lt;span style=&quot;background-color: transparent; color: light-dark(rgb(0, 0, 0), rgb(255, 255, 255));&quot;&gt;//derived&lt;/span&gt;&lt;/div&gt;" style="text;html=1;align=center;verticalAlign=middle;whiteSpace=wrap;rounded=0;" parent="1" vertex="1">
          <mxGeometry x="570" y="120" width="20" height="7" as="geometry" />
        </mxCell>
        <mxCell id="FTfOvMeQZkhhuj3rjYe9-24" value="" style="ellipse;whiteSpace=wrap;html=1;" parent="1" vertex="1">
          <mxGeometry x="564" y="100" width="10" height="12" as="geometry" />
        </mxCell>
        <mxCell id="FTfOvMeQZkhhuj3rjYe9-25" value="" style="endArrow=none;html=1;rounded=0;entryX=0.5;entryY=1;entryDx=0;entryDy=0;exitX=0.5;exitY=0;exitDx=0;exitDy=0;" parent="1" source="FTfOvMeQZkhhuj3rjYe9-24" target="Rv9nNQW4Hy2pHnhk0odQ-2" edge="1">
          <mxGeometry width="50" height="50" relative="1" as="geometry">
            <mxPoint x="930" y="57" as="sourcePoint" />
            <mxPoint x="980" y="7" as="targetPoint" />
          </mxGeometry>
        </mxCell>
        <mxCell id="FTfOvMeQZkhhuj3rjYe9-28" value="" style="endArrow=none;html=1;rounded=0;" parent="1" source="FTfOvMeQZkhhuj3rjYe9-29" edge="1">
          <mxGeometry width="50" height="50" relative="1" as="geometry">
            <mxPoint x="120" y="330" as="sourcePoint" />
            <mxPoint x="160" y="320" as="targetPoint" />
          </mxGeometry>
        </mxCell>
        <mxCell id="FTfOvMeQZkhhuj3rjYe9-29" value="" style="ellipse;whiteSpace=wrap;html=1;" parent="1" vertex="1">
          <mxGeometry x="115" y="330" width="10" height="10" as="geometry" />
        </mxCell>
        <mxCell id="FTfOvMeQZkhhuj3rjYe9-30" value="Uptime" style="text;html=1;align=center;verticalAlign=middle;resizable=0;points=[];autosize=1;strokeColor=none;fillColor=none;" parent="1" vertex="1">
          <mxGeometry x="60" y="328" width="60" height="30" as="geometry" />
        </mxCell>
        <mxCell id="FTfOvMeQZkhhuj3rjYe9-32" value="" style="endArrow=none;html=1;rounded=0;" parent="1" target="FTfOvMeQZkhhuj3rjYe9-33" edge="1">
          <mxGeometry width="50" height="50" relative="1" as="geometry">
            <mxPoint x="230" y="40" as="sourcePoint" />
            <mxPoint x="230" y="20" as="targetPoint" />
          </mxGeometry>
        </mxCell>
        <mxCell id="FTfOvMeQZkhhuj3rjYe9-33" value="" style="ellipse;whiteSpace=wrap;html=1;" parent="1" vertex="1">
          <mxGeometry x="224" y="20" width="10" height="5" as="geometry" />
        </mxCell>
        <mxCell id="FTfOvMeQZkhhuj3rjYe9-34" value="Manager" style="text;html=1;align=center;verticalAlign=middle;resizable=0;points=[];autosize=1;strokeColor=none;fillColor=none;" parent="1" vertex="1">
          <mxGeometry x="195" y="-2" width="70" height="30" as="geometry" />
        </mxCell>
        <mxCell id="FTfOvMeQZkhhuj3rjYe9-35" value="" style="endArrow=none;html=1;rounded=0;exitX=1.002;exitY=0.179;exitDx=0;exitDy=0;exitPerimeter=0;" parent="1" source="Rv9nNQW4Hy2pHnhk0odQ-5" target="FTfOvMeQZkhhuj3rjYe9-36" edge="1">
          <mxGeometry width="50" height="50" relative="1" as="geometry">
            <mxPoint x="900" y="490" as="sourcePoint" />
            <mxPoint x="930" y="490" as="targetPoint" />
          </mxGeometry>
        </mxCell>
        <mxCell id="FTfOvMeQZkhhuj3rjYe9-36" value="" style="ellipse;whiteSpace=wrap;html=1;" parent="1" vertex="1">
          <mxGeometry x="913" y="486" width="10" height="10" as="geometry" />
        </mxCell>
        <mxCell id="FTfOvMeQZkhhuj3rjYe9-37" value="Type" style="text;html=1;align=center;verticalAlign=middle;resizable=0;points=[];autosize=1;strokeColor=none;fillColor=none;" parent="1" vertex="1">
          <mxGeometry x="915" y="478" width="50" height="30" as="geometry" />
        </mxCell>
        <mxCell id="FTfOvMeQZkhhuj3rjYe9-39" value="" style="endArrow=none;html=1;rounded=0;exitX=1.002;exitY=0.64;exitDx=0;exitDy=0;exitPerimeter=0;" parent="1" source="Rv9nNQW4Hy2pHnhk0odQ-5" edge="1">
          <mxGeometry width="50" height="50" relative="1" as="geometry">
            <mxPoint x="910" y="500" as="sourcePoint" />
            <mxPoint x="920" y="520" as="targetPoint" />
          </mxGeometry>
        </mxCell>
        <mxCell id="FTfOvMeQZkhhuj3rjYe9-41" value="" style="ellipse;whiteSpace=wrap;html=1;" parent="1" vertex="1">
          <mxGeometry x="918" y="515.5" width="10" height="10" as="geometry" />
        </mxCell>
        <mxCell id="FTfOvMeQZkhhuj3rjYe9-42" value="Surname" style="text;html=1;align=center;verticalAlign=middle;resizable=0;points=[];autosize=1;strokeColor=none;fillColor=none;" parent="1" vertex="1">
          <mxGeometry x="906.5" y="516" width="70" height="30" as="geometry" />
        </mxCell>
        <mxCell id="FTfOvMeQZkhhuj3rjYe9-46" value="" style="endArrow=none;html=1;rounded=0;exitX=1;exitY=0.5;exitDx=0;exitDy=0;entryX=0;entryY=0.5;entryDx=0;entryDy=0;" parent="1" source="Rv9nNQW4Hy2pHnhk0odQ-43" target="Rv9nNQW4Hy2pHnhk0odQ-2" edge="1">
          <mxGeometry width="50" height="50" relative="1" as="geometry">
            <mxPoint x="600" y="270" as="sourcePoint" />
            <mxPoint x="650" y="220" as="targetPoint" />
          </mxGeometry>
        </mxCell>
        <mxCell id="FTfOvMeQZkhhuj3rjYe9-48" value="(1,1)" style="edgeLabel;html=1;align=center;verticalAlign=middle;resizable=0;points=[];" parent="FTfOvMeQZkhhuj3rjYe9-46" vertex="1" connectable="0">
          <mxGeometry x="-0.2848" y="1" relative="1" as="geometry">
            <mxPoint as="offset" />
          </mxGeometry>
        </mxCell>
        <mxCell id="Rv9nNQW4Hy2pHnhk0odQ-175" value="" style="ellipse;whiteSpace=wrap;html=1;aspect=fixed;fillStyle=solid;fillColor=#000000;gradientColor=#333333;" parent="1" vertex="1">
          <mxGeometry x="564" y="-3" width="10" height="10" as="geometry" />
        </mxCell>
        <mxCell id="Rv9nNQW4Hy2pHnhk0odQ-176" value="Name" style="text;html=1;align=center;verticalAlign=middle;whiteSpace=wrap;rounded=0;" parent="1" vertex="1">
          <mxGeometry x="564" y="-20" width="20" height="10" as="geometry" />
        </mxCell>
        <mxCell id="FTfOvMeQZkhhuj3rjYe9-52" value="" style="endArrow=none;html=1;rounded=0;entryX=0.5;entryY=0;entryDx=0;entryDy=0;exitX=0.5;exitY=1;exitDx=0;exitDy=0;" parent="1" source="Rv9nNQW4Hy2pHnhk0odQ-175" target="Rv9nNQW4Hy2pHnhk0odQ-2" edge="1">
          <mxGeometry width="50" height="50" relative="1" as="geometry">
            <mxPoint x="470" y="110" as="sourcePoint" />
            <mxPoint x="520" y="60" as="targetPoint" />
          </mxGeometry>
        </mxCell>
        <mxCell id="FTfOvMeQZkhhuj3rjYe9-53" value="Contract" style="rounded=1;whiteSpace=wrap;html=1;" parent="1" vertex="1">
          <mxGeometry x="923" y="25" width="120" height="60" as="geometry" />
        </mxCell>
        <mxCell id="FTfOvMeQZkhhuj3rjYe9-21" value="" style="ellipse;whiteSpace=wrap;html=1;" parent="1" vertex="1">
          <mxGeometry x="645" y="70" width="10" height="12" as="geometry" />
        </mxCell>
        <mxCell id="FTfOvMeQZkhhuj3rjYe9-59" value="Provides" style="rhombus;whiteSpace=wrap;html=1;" parent="1" vertex="1">
          <mxGeometry x="725" y="15" width="80" height="80" as="geometry" />
        </mxCell>
        <mxCell id="FTfOvMeQZkhhuj3rjYe9-60" value="" style="endArrow=none;html=1;rounded=0;entryX=1;entryY=0.5;entryDx=0;entryDy=0;exitX=0;exitY=0.5;exitDx=0;exitDy=0;" parent="1" source="FTfOvMeQZkhhuj3rjYe9-59" target="Rv9nNQW4Hy2pHnhk0odQ-2" edge="1">
          <mxGeometry width="50" height="50" relative="1" as="geometry">
            <mxPoint x="490" y="240" as="sourcePoint" />
            <mxPoint x="540" y="190" as="targetPoint" />
          </mxGeometry>
        </mxCell>
        <mxCell id="FTfOvMeQZkhhuj3rjYe9-68" value="(0,N)" style="edgeLabel;html=1;align=center;verticalAlign=middle;resizable=0;points=[];" parent="FTfOvMeQZkhhuj3rjYe9-60" vertex="1" connectable="0">
          <mxGeometry x="0.5614" y="-3" relative="1" as="geometry">
            <mxPoint as="offset" />
          </mxGeometry>
        </mxCell>
        <mxCell id="FTfOvMeQZkhhuj3rjYe9-61" value="" style="endArrow=none;html=1;rounded=0;exitX=1;exitY=0.5;exitDx=0;exitDy=0;" parent="1" source="FTfOvMeQZkhhuj3rjYe9-59" edge="1">
          <mxGeometry width="50" height="50" relative="1" as="geometry">
            <mxPoint x="800" y="60" as="sourcePoint" />
            <mxPoint x="920" y="55" as="targetPoint" />
          </mxGeometry>
        </mxCell>
        <mxCell id="FTfOvMeQZkhhuj3rjYe9-69" value="(1,1)" style="edgeLabel;html=1;align=center;verticalAlign=middle;resizable=0;points=[];" parent="FTfOvMeQZkhhuj3rjYe9-61" vertex="1" connectable="0">
          <mxGeometry x="-0.3913" y="1" relative="1" as="geometry">
            <mxPoint as="offset" />
          </mxGeometry>
        </mxCell>
        <mxCell id="FTfOvMeQZkhhuj3rjYe9-62" value="Linked" style="rhombus;whiteSpace=wrap;html=1;" parent="1" vertex="1">
          <mxGeometry x="805" y="130" width="80" height="80" as="geometry" />
        </mxCell>
        <mxCell id="FTfOvMeQZkhhuj3rjYe9-63" value="" style="endArrow=none;html=1;rounded=0;entryX=1;entryY=0.5;entryDx=0;entryDy=0;exitX=0.5;exitY=1;exitDx=0;exitDy=0;" parent="1" source="FTfOvMeQZkhhuj3rjYe9-53" target="FTfOvMeQZkhhuj3rjYe9-62" edge="1">
          <mxGeometry width="50" height="50" relative="1" as="geometry">
            <mxPoint x="490" y="240" as="sourcePoint" />
            <mxPoint x="540" y="190" as="targetPoint" />
            <Array as="points">
              <mxPoint x="980" y="170" />
            </Array>
          </mxGeometry>
        </mxCell>
        <mxCell id="FTfOvMeQZkhhuj3rjYe9-66" value="(1,1)" style="edgeLabel;html=1;align=center;verticalAlign=middle;resizable=0;points=[];" parent="FTfOvMeQZkhhuj3rjYe9-63" vertex="1" connectable="0">
          <mxGeometry x="0.4113" y="1" relative="1" as="geometry">
            <mxPoint as="offset" />
          </mxGeometry>
        </mxCell>
        <mxCell id="FTfOvMeQZkhhuj3rjYe9-64" value="" style="endArrow=none;html=1;rounded=0;entryX=0.5;entryY=1;entryDx=0;entryDy=0;exitX=0.5;exitY=0;exitDx=0;exitDy=0;" parent="1" source="Rv9nNQW4Hy2pHnhk0odQ-11" target="FTfOvMeQZkhhuj3rjYe9-62" edge="1">
          <mxGeometry width="50" height="50" relative="1" as="geometry">
            <mxPoint x="490" y="240" as="sourcePoint" />
            <mxPoint x="540" y="190" as="targetPoint" />
          </mxGeometry>
        </mxCell>
        <mxCell id="FTfOvMeQZkhhuj3rjYe9-67" value="(1,1)" style="edgeLabel;html=1;align=center;verticalAlign=middle;resizable=0;points=[];" parent="FTfOvMeQZkhhuj3rjYe9-64" vertex="1" connectable="0">
          <mxGeometry x="0.08" y="-2" relative="1" as="geometry">
            <mxPoint as="offset" />
          </mxGeometry>
        </mxCell>
        <mxCell id="FTfOvMeQZkhhuj3rjYe9-72" value="" style="endArrow=none;html=1;rounded=0;exitX=0.25;exitY=0;exitDx=0;exitDy=0;" parent="1" source="FTfOvMeQZkhhuj3rjYe9-53" target="FTfOvMeQZkhhuj3rjYe9-71" edge="1">
          <mxGeometry width="50" height="50" relative="1" as="geometry">
            <mxPoint x="953" y="25" as="sourcePoint" />
            <mxPoint x="953" as="targetPoint" />
          </mxGeometry>
        </mxCell>
        <mxCell id="FTfOvMeQZkhhuj3rjYe9-71" value="" style="ellipse;whiteSpace=wrap;html=1;aspect=fixed;fillStyle=solid;fillColor=#001933;" parent="1" vertex="1">
          <mxGeometry x="943" y="-3" width="9.5" height="9.5" as="geometry" />
        </mxCell>
        <mxCell id="FTfOvMeQZkhhuj3rjYe9-73" value="ID" style="text;html=1;align=center;verticalAlign=middle;resizable=0;points=[];autosize=1;strokeColor=none;fillColor=none;" parent="1" vertex="1">
          <mxGeometry x="920" y="-22" width="40" height="30" as="geometry" />
        </mxCell>
        <mxCell id="FTfOvMeQZkhhuj3rjYe9-74" value="Type" style="text;html=1;align=center;verticalAlign=middle;whiteSpace=wrap;rounded=0;" parent="1" vertex="1">
          <mxGeometry x="1080" y="30" width="20" height="10" as="geometry" />
        </mxCell>
        <mxCell id="FTfOvMeQZkhhuj3rjYe9-75" value="" style="endArrow=none;html=1;rounded=0;entryX=1.001;entryY=0.821;entryDx=0;entryDy=0;entryPerimeter=0;" parent="1" source="FTfOvMeQZkhhuj3rjYe9-76" edge="1">
          <mxGeometry width="50" height="50" relative="1" as="geometry">
            <mxPoint x="1093.88" y="34" as="sourcePoint" />
            <mxPoint x="1043" y="34.25999999999999" as="targetPoint" />
          </mxGeometry>
        </mxCell>
        <mxCell id="FTfOvMeQZkhhuj3rjYe9-76" value="" style="ellipse;whiteSpace=wrap;html=1;" parent="1" vertex="1">
          <mxGeometry x="1059" y="28" width="10" height="12" as="geometry" />
        </mxCell>
        <mxCell id="FTfOvMeQZkhhuj3rjYe9-77" value="Start_Date" style="text;html=1;align=center;verticalAlign=middle;whiteSpace=wrap;rounded=0;" parent="1" vertex="1">
          <mxGeometry x="1090" y="55" width="20" height="10" as="geometry" />
        </mxCell>
        <mxCell id="FTfOvMeQZkhhuj3rjYe9-78" value="" style="endArrow=none;html=1;rounded=0;entryX=1.001;entryY=0.821;entryDx=0;entryDy=0;entryPerimeter=0;" parent="1" source="FTfOvMeQZkhhuj3rjYe9-79" edge="1">
          <mxGeometry width="50" height="50" relative="1" as="geometry">
            <mxPoint x="1093.88" y="61" as="sourcePoint" />
            <mxPoint x="1043" y="61.25999999999999" as="targetPoint" />
          </mxGeometry>
        </mxCell>
        <mxCell id="FTfOvMeQZkhhuj3rjYe9-79" value="" style="ellipse;whiteSpace=wrap;html=1;" parent="1" vertex="1">
          <mxGeometry x="1059" y="55" width="10" height="12" as="geometry" />
        </mxCell>
        <mxCell id="FTfOvMeQZkhhuj3rjYe9-81" value="Energy_Plan" style="text;html=1;align=center;verticalAlign=middle;whiteSpace=wrap;rounded=0;" parent="1" vertex="1">
          <mxGeometry x="1100" y="75" width="20" height="10" as="geometry" />
        </mxCell>
        <mxCell id="FTfOvMeQZkhhuj3rjYe9-82" value="" style="endArrow=none;html=1;rounded=0;entryX=1.001;entryY=0.821;entryDx=0;entryDy=0;entryPerimeter=0;" parent="1" source="FTfOvMeQZkhhuj3rjYe9-83" edge="1">
          <mxGeometry width="50" height="50" relative="1" as="geometry">
            <mxPoint x="1093.88" y="76" as="sourcePoint" />
            <mxPoint x="1043" y="76.25999999999999" as="targetPoint" />
          </mxGeometry>
        </mxCell>
        <mxCell id="FTfOvMeQZkhhuj3rjYe9-83" value="" style="ellipse;whiteSpace=wrap;html=1;" parent="1" vertex="1">
          <mxGeometry x="1059" y="70" width="10" height="12" as="geometry" />
        </mxCell>
        <mxCell id="FTfOvMeQZkhhuj3rjYe9-89" value="Cost" style="text;html=1;align=center;verticalAlign=middle;whiteSpace=wrap;rounded=0;" parent="1" vertex="1">
          <mxGeometry x="940.75" y="115.75" width="20" height="7" as="geometry" />
        </mxCell>
        <mxCell id="FTfOvMeQZkhhuj3rjYe9-90" value="" style="ellipse;whiteSpace=wrap;html=1;" parent="1" vertex="1">
          <mxGeometry x="934.75" y="95.75" width="10" height="12" as="geometry" />
        </mxCell>
        <mxCell id="FTfOvMeQZkhhuj3rjYe9-91" value="" style="endArrow=none;html=1;rounded=0;entryX=0.143;entryY=1.005;entryDx=0;entryDy=0;exitX=0.5;exitY=0;exitDx=0;exitDy=0;entryPerimeter=0;" parent="1" source="FTfOvMeQZkhhuj3rjYe9-90" target="FTfOvMeQZkhhuj3rjYe9-53" edge="1">
          <mxGeometry width="50" height="50" relative="1" as="geometry">
            <mxPoint x="1300.75" y="52.75" as="sourcePoint" />
            <mxPoint x="939.75" y="82.75" as="targetPoint" />
          </mxGeometry>
        </mxCell>
        <mxCell id="FTfOvMeQZkhhuj3rjYe9-100" value="" style="group;rotation=90;" parent="1" vertex="1" connectable="0">
          <mxGeometry x="991" y="10" width="20" height="10" as="geometry" />
        </mxCell>
        <mxCell id="FTfOvMeQZkhhuj3rjYe9-101" value="" style="line;strokeWidth=2;html=1;rotation=90;" parent="FTfOvMeQZkhhuj3rjYe9-100" vertex="1">
          <mxGeometry x="5" y="5" width="10" height="10" as="geometry" />
        </mxCell>
        <mxCell id="FTfOvMeQZkhhuj3rjYe9-102" value="" style="ellipse;whiteSpace=wrap;html=1;aspect=fixed;rotation=90;" parent="FTfOvMeQZkhhuj3rjYe9-100" vertex="1">
          <mxGeometry x="5" y="-5" width="10" height="10" as="geometry" />
        </mxCell>
        <mxCell id="FTfOvMeQZkhhuj3rjYe9-103" value="Duration" style="text;html=1;align=center;verticalAlign=middle;whiteSpace=wrap;rounded=0;" parent="1" vertex="1">
          <mxGeometry x="990" y="-9" width="10" height="10" as="geometry" />
        </mxCell>
        <mxCell id="FTfOvMeQZkhhuj3rjYe9-108" value="" style="group;rotation=90;" parent="1" vertex="1" connectable="0">
          <mxGeometry x="1031.5" y="9.5" width="19" height="13.879999999999999" as="geometry" />
        </mxCell>
        <mxCell id="FTfOvMeQZkhhuj3rjYe9-110" value="" style="ellipse;whiteSpace=wrap;html=1;aspect=fixed;rotation=90;" parent="FTfOvMeQZkhhuj3rjYe9-108" vertex="1">
          <mxGeometry x="4.75" y="-4" width="9.5" height="9.5" as="geometry" />
        </mxCell>
        <mxCell id="FTfOvMeQZkhhuj3rjYe9-111" value="Active" style="text;html=1;align=center;verticalAlign=middle;whiteSpace=wrap;rounded=0;" parent="1" vertex="1">
          <mxGeometry x="1043" y="-9" width="10" height="10" as="geometry" />
        </mxCell>
        <mxCell id="FTfOvMeQZkhhuj3rjYe9-112" value="" style="endArrow=none;html=1;rounded=0;entryX=1;entryY=0.5;entryDx=0;entryDy=0;exitX=0.968;exitY=0.016;exitDx=0;exitDy=0;exitPerimeter=0;" parent="1" source="FTfOvMeQZkhhuj3rjYe9-53" target="FTfOvMeQZkhhuj3rjYe9-110" edge="1">
          <mxGeometry width="50" height="50" relative="1" as="geometry">
            <mxPoint x="1040" y="60" as="sourcePoint" />
            <mxPoint x="1090" y="10" as="targetPoint" />
          </mxGeometry>
        </mxCell>
        <mxCell id="mMcR2TCD_iFHlu4honva-1" value="" style="endArrow=none;html=1;rounded=0;exitX=0.89;exitY=0.017;exitDx=0;exitDy=0;exitPerimeter=0;" parent="1" source="Rv9nNQW4Hy2pHnhk0odQ-2" target="mMcR2TCD_iFHlu4honva-2" edge="1">
          <mxGeometry width="50" height="50" relative="1" as="geometry">
            <mxPoint x="660" as="sourcePoint" />
            <mxPoint x="616" as="targetPoint" />
          </mxGeometry>
        </mxCell>
        <mxCell id="mMcR2TCD_iFHlu4honva-2" value="" style="ellipse;whiteSpace=wrap;html=1;" parent="1" vertex="1">
          <mxGeometry x="610" y="-2" width="11" height="15" as="geometry" />
        </mxCell>
        <mxCell id="mMcR2TCD_iFHlu4honva-3" value="MaxOutputEnergy" style="text;html=1;align=center;verticalAlign=middle;resizable=0;points=[];autosize=1;strokeColor=none;fillColor=none;" parent="1" vertex="1">
          <mxGeometry x="595" y="-23.5" width="120" height="30" as="geometry" />
        </mxCell>
        <mxCell id="xx63uA11irZrkVVuEprc-1" value="" style="endArrow=none;html=1;rounded=0;entryX=0.438;entryY=1;entryDx=0;entryDy=0;entryPerimeter=0;" edge="1" parent="1" source="xx63uA11irZrkVVuEprc-2" target="Rv9nNQW4Hy2pHnhk0odQ-5">
          <mxGeometry width="50" height="50" relative="1" as="geometry">
            <mxPoint x="840" y="570" as="sourcePoint" />
            <mxPoint x="850" y="560" as="targetPoint" />
          </mxGeometry>
        </mxCell>
        <mxCell id="xx63uA11irZrkVVuEprc-2" value="" style="ellipse;whiteSpace=wrap;html=1;aspect=fixed;" vertex="1" parent="1">
          <mxGeometry x="830" y="560" width="10" height="10" as="geometry" />
        </mxCell>
        <mxCell id="xx63uA11irZrkVVuEprc-4" value="DoB" style="text;html=1;align=center;verticalAlign=middle;resizable=0;points=[];autosize=1;strokeColor=none;fillColor=none;" vertex="1" parent="1">
          <mxGeometry x="810" y="570" width="50" height="30" as="geometry" />
        </mxCell>
      </root>
    </mxGraphModel>
  </diagram>
</mxfile>
